<?xml version="1.0" encoding="UTF-8"?>
<svg xmlns="http://www.w3.org/2000/svg" xmlns:xlink="http://www.w3.org/1999/xlink" viewBox="0 0 100 100" width="100" height="100" version="1.1" role="img" aria-label="Triton AI Logo">
  <!-- 
    Triton AI Logo
    Version: 1.0.0
    (c) 2024 Triton AI - All rights reserved
  -->
  
  <title>Triton AI</title>
  <desc>Official logo for Triton AI enterprise assistant platform</desc>
  
  <defs>
    <!-- Primary gradient for light mode -->
    <linearGradient id="primary-gradient" x1="0%" y1="0%" x2="100%" y2="100%" gradientUnits="userSpaceOnUse">
      <stop offset="0%" stop-color="#0ea5e9" />
      <stop offset="100%" stop-color="#0369a1" />
    </linearGradient>
    
    <!-- Alternative gradient for dark backgrounds -->
    <linearGradient id="alt-gradient" x1="0%" y1="0%" x2="100%" y2="100%" gradientUnits="userSpaceOnUse">
      <stop offset="0%" stop-color="#38bdf8" />
      <stop offset="100%" stop-color="#0284c7" />
    </linearGradient>
    
    <!-- Monochrome version for specific use cases -->
    <linearGradient id="mono-gradient" x1="0%" y1="0%" x2="100%" y2="100%" gradientUnits="userSpaceOnUse">
      <stop offset="0%" stop-color="#ffffff" />
      <stop offset="100%" stop-color="#e0e0e0" />
    </linearGradient>
  </defs>
  
  <g id="logo-main">
    <!-- Hexagon base shape -->
    <path d="M50 5 L95 30 L95 80 L50 105 L5 80 L5 30 Z" fill="url(#primary-gradient)" 
          stroke="none" vector-effect="non-scaling-stroke" />
          
    <!-- Inner hexagon (outline) -->
    <path d="M50 20 L80 38 L80 74 L50 92 L20 74 L20 38 Z" fill="none" 
          stroke="white" stroke-width="3" stroke-linejoin="round" vector-effect="non-scaling-stroke" />
          
    <!-- Trident symbol -->
    <path d="M35 40 L50 50 L65 40 M50 50 L50 80" stroke="white" stroke-width="5" 
          stroke-linecap="round" stroke-linejoin="round" fill="none" vector-effect="non-scaling-stroke" />
  </g>
  
  <!-- Alternative view for small sizes (hidden by default) -->
  <g id="logo-small" transform="scale(0.5) translate(50, 50)" style="display:none;">
    <path d="M50 15 L85 35 L85 75 L50 95 L15 75 L15 35 Z" fill="url(#primary-gradient)" />
    <path d="M50 50 L50 75" stroke="white" stroke-width="8" stroke-linecap="round" />
    <circle cx="50" cy="45" r="8" fill="white" />
  </g>
  
  <!-- Monochrome version for print/specific contexts (hidden by default) -->
  <g id="logo-mono" style="display:none;">
    <path d="M50 5 L95 30 L95 80 L50 105 L5 80 L5 30 Z" fill="#0284c7" />
    <path d="M50 20 L80 38 L80 74 L50 92 L20 74 L20 38 Z" fill="none" stroke="white" stroke-width="3" />
    <path d="M35 40 L50 50 L65 40 M50 50 L50 80" stroke="white" stroke-width="5" 
          stroke-linecap="round" stroke-linejoin="round" fill="none" />
  </g>
  
  <metadata>
    <rdf:RDF xmlns:rdf="http://www.w3.org/1999/02/22-rdf-syntax-ns#"
             xmlns:dc="http://purl.org/dc/elements/1.1/">
      <rdf:Description about="https://triton.kanopus.org"
                       dc:title="Triton AI Logo"
                       dc:description="Official logo for Triton AI enterprise assistant platform"
                       dc:creator="Triton AI Design Team"
                       dc:date="2024"
                       dc:format="image/svg+xml"
                       dc:type="Image" />
    </rdf:RDF>
  </metadata>
</svg>
